<?xml version="1.0" encoding="utf-8"?>
<!-- Generator: Adobe Illustrator 16.0.0, SVG Export Plug-In . SVG Version: 6.00 Build 0)  -->
<!DOCTYPE svg PUBLIC "-//W3C//DTD SVG 1.1//EN" "http://www.w3.org/Graphics/SVG/1.1/DTD/svg11.dtd">
<svg version="1.1" id="Layer_1" xmlns="http://www.w3.org/2000/svg" xmlns:xlink="http://www.w3.org/1999/xlink" x="0px" y="0px"
	 width="1400px" height="980px" viewBox="0 0 1400 980" enable-background="new 0 0 1400 980" xml:space="preserve">
<rect fill="#E5E580" width="1400" height="980"/>
<g opacity="0.1">
	<path fill="#5D5D5D" d="M271.77,621.741c1.07-20.021,11.697-38.849,28.97-50.074c8.72-5.667,0.611-19.692-8.174-13.983
		c-22.239,14.452-35.906,38.563-36.973,64.293c-0.589,0.042-1.177,0.069-1.766,0.118c-0.443,0.037-0.88,0.088-1.322,0.129
		c-0.529-0.673-1.193-1.296-2.009-1.845c-12.718-8.566-29.215-12.999-44.421-12.711c-35.439,0.671-56.641,31.454-68.368,61.337
		c-1.763,4.492,1.944,8.396,5.655,9.963c2.722,1.148,5.524,2.182,8.38,3.109c-21.44,31.224-30.815,71.014-22.933,110.663
		c1.115,5.61,6.304,6.834,10.435,5.123l6.775,18.768c-4.054,1.737-7.026,6.462-4.315,11.499
		c25.936,48.189,76.675,77.305,131.372,75.348c50.365-1.801,96.142-32.499,119.235-76.803c23.69-45.448,19.2-101.652-9.272-143.794
		C357.954,645.75,315.856,623.613,271.77,621.741z"/>
	<path fill="#5D5D5D" d="M783.862,726.545l-0.171-20.88c4.272-0.697,8.516-4.521,7.743-10.063
		c-5.735-41.147-31.852-72.723-74.345-76.825c-19.207-1.855-40.143,2.543-58.321,10.085c-2.461-23.531,8.643-46.851,28.723-59.899
		c8.72-5.667,0.611-19.693-8.174-13.984c-24.209,15.731-38.268,42.906-36.964,71.157c-1.2-0.441-2.409-0.862-3.625-1.27
		c-2.463-8.306-6.262-16.248-11.107-23.067c-20.823-29.303-58.04-29.915-89.946-22.032c-4.448,1.1-6.581,5.744-5.656,9.962
		c3.301,15.052,10.095,29.691,19.074,42.281c-24.375,16.81-34.656,47.107-36.289,76.842
		c-3.516,63.98,32.624,155.202,110.126,146.519c8.919-1,17.514-3.258,25.921-6.351c4.768-1.754,9.352,1.345,14.07,2.822
		c5.758,1.804,11.82,2.977,17.818,3.611c19.874,2.096,39.073-2.405,55.666-13.608c34.53-23.311,49.453-68.07,53.617-107.6
		C792.609,728.68,788.225,726.131,783.862,726.545z"/>
	<path fill="#5D5D5D" d="M404.284,216.487c3.711-1.565,7.418-5.47,5.655-9.962c-12.062-30.734-32.738-59.565-68.368-61.338
		c-14.982-0.745-31.951,4.312-44.421,12.711c-0.514,0.346-0.964,0.723-1.362,1.122c-1.503-0.314-3.016-0.599-4.541-0.835
		c4.668-31.049-9.664-61.987-36.167-79.209c-8.786-5.709-16.895,8.317-8.174,13.984c21.43,13.927,32.638,39.553,28.041,64.647
		c-12.063,1.235-23.63,4.882-34.231,10.948c-22.481,12.862-27.847,34.929-30.594,58.904c-3.251,28.382-10.248,54.795-23.113,80.359
		c-7.408,14.717-17.291,28.299-23.895,43.364c-6.293,14.357-8.877,30.317-9.58,45.895c-0.279,6.183,5.286,8.688,9.971,7.549
		l5.506,24.428c-4.328,1.417-7.945,6.492-5.411,11.974c21.07,45.585,67.086,65.909,115.243,66.67
		c0.335,0.037,0.672,0.06,1.009,0.051c0.396-0.021,1.223-0.021,1.62,0c0.307,0.008,0.611-0.008,0.913-0.038
		c42.794-0.502,83.878-15.874,108.538-52.283c19.514-28.809,23.469-68.214,10.279-100.323
		c-9.766-23.772-25.996-44.387-35.541-68.469c-7.915-19.966-11.032-40.756-13.722-61.805c0.146,0.017,0.287,0.04,0.434,0.055
		C369.381,226.714,388.523,223.137,404.284,216.487z"/>
	<path fill="#5D5D5D" d="M1292.348,573.584c-48.167-95.532-161.186-142.208-263.238-113.74
		c-35.823,9.993-68.093,29.465-94.543,55.139c-3.328-1.867-6.96-1.823-11.42,1.482l-15.2,11.268
		c-9.444,6.995-11.426,20.328-4.424,29.771c6.999,9.441,20.328,11.42,29.772,4.424l15.197-11.265
		c4.283-3.175,5.462-6.493,4.824-10.053c79.786-28.288,170.229-5.241,227.028,60.127c65.288,75.138,63.969,190.223,0.923,266.146
		c-5.866,7.063,1.342,16.964,9.813,12.718c8.725-4.374,17.105-9.209,25.27-14.557c0.847-0.555,1.666-1.145,2.466-1.756
		c0.322-0.17,0.645-0.357,0.966-0.585C1311.86,797.566,1343.228,674.495,1292.348,573.584z"/>
	<path fill="#5D5D5D" d="M972.341,386.886c0.583,0.129,1.187,0.195,1.805,0.173c0.494-0.036,1.627-0.036,2.121,0
		c0.669,0.024,1.333-0.056,1.982-0.208c19.705-1.578,35.658-11.647,43.646-30.326c6.529-15.265,7.732-34.933,1.275-50.485
		c-0.198-0.479-0.435-0.914-0.689-1.324c-0.088-0.203-0.174-0.406-0.279-0.61c-7.818-15.085-24.024-18.963-39.678-18.083
		c-0.188-11.989,0.038-23.993,0.588-35.958c1.274-27.793,6.721-50.341,21.183-74.419c13.025-21.687,33.209-43.732,56.695-56.871
		c0.108,7.113,1.156,14.226,3.09,20.893c-2.452,21.167-0.577,43.139,3.728,63.031c8.425,38.926,30.696,69.538,57.995,96.85
		c-11.051,6.274-20.834,15.869-21.77,28.736c-1.273,17.51,10.1,35.221,22.444,46.642c16.564,15.326,38.224,16.941,57.915,7.516
		c0.554-0.175,1.082-0.407,1.563-0.71c0.41-0.279,0.84-0.529,1.286-0.747c0.569-0.304,1.07-0.677,1.517-1.095
		c16.437-11.463,25.531-28.627,22.667-49.064c-2.337-16.679-10.888-32.712-23.91-43.451c-0.493-0.516-1.069-0.997-1.761-1.422
		c-0.684-0.522-1.365-0.895-2.036-1.156c-8.578-4.54-17.556-4.75-27.018-1.894c-4.923,1.485-9.574,4.124-13.888,6.859
		c-0.769,0.487-1.514,1.011-2.249,1.548c-7.237-7.164-14.192-14.624-20.912-22.257c-17.531-19.913-28.593-41.087-35.327-66.881
		c-2.916-11.173-4.743-23.727-5.178-36.467c16.608,16.705,42.276,22.825,66.341,23.825c4.634,0.192,7.808-3.841,8.098-8.098
		c1.184-17.348-1.896-36.07-8.832-51.963c-13.672-31.335-43.245-41.741-75.65-37.009c-4.099,0.599-5.865,3.43-5.87,6.527
		c-0.06,0.234-0.116,0.47-0.173,0.706c-28.323,12.838-52.38,37.316-69.189,62.192c-16.812,24.881-24.269,50.207-26.458,79.772
		c-1.086,14.661-1.39,29.454-1.11,44.192c-4.135-0.227-8.312,0.007-12.391,0.653c-10.519,1.67-18.957,6.384-25.012,15.226
		c-9.32,13.614-7.103,36.2-2.213,50.817C933.65,373.357,951.097,385.22,972.341,386.886z"/>
	<path fill="#5D5D5D" d="M1119.327,649.621c-28.892-5.604-58.614,4.505-77.278,26.655c-0.445-0.341-0.894-0.678-1.346-1.01
		c0.29-0.2,0.582-0.392,0.871-0.596c1.18-0.834,2.027-1.828,2.607-2.899c1.117-1.657,1.641-3.777,1.113-6.246
		c-3.184-14.901-11.894-29.531-22.956-39.838c-26.014-24.235-62.623-16.986-91.959-3.531c-4.357,1.999-4.499,7.355-2.904,11.079
		c4.486,10.481,10.917,20.591,18.562,29.409c-45.121,15.158-80.972,57.588-90.06,103.685
		c-10.354,52.501,20.812,103.971,75.386,111.357c7.984,1.082,15.894,1.039,23.904,0.32c5.852-0.525,8.408-5.965,7.63-10.405
		l24.689-7.467c1.617,4.21,6.477,7.433,11.667,4.7c49.279-25.945,83.221-80.614,73.686-137.012
		c-2.72-16.088-9.495-29.645-19.001-40.463c14.609-17.772,38.099-26.581,61.081-22.122
		C1125.223,667.218,1129.573,651.607,1119.327,649.621z"/>
	<path fill="#5D5D5D" d="M535.52,216.487c9.989,4.215,21.018,6.954,32.073,8.105c-2.311,3.656-4.453,7.368-6.405,11.098
		c-9.818,18.76-16.076,39.683-18.569,60.681c-1.354,11.408-2.042,22.979-0.561,34.408c1.166,8.99,4.771,17.21,7.784,25.69
		c1.926,5.423,7.603,6.534,11.676,4.766l15.609,27.925c-3.691,2.6-5.685,8.22-1.842,12.675
		c35.574,41.238,92.979,50.975,139.765,22.708c44.214-26.715,59.242-81.653,52.436-130.326
		c-7.117-50.883-36.25-105.601-87.425-123.176c-5.41-1.858-10.762-3.061-16.037-3.688c-1.752-22.936,9.289-45.438,28.875-58.167
		c8.721-5.667,0.611-19.693-8.174-13.984c-24.452,15.891-38.553,43.456-36.923,72.012c-0.5,0.051-0.998,0.111-1.496,0.172
		c0.022-0.115,0.048-0.228,0.07-0.343c0.308-1.624,0.167-3.099-0.288-4.391c-0.444-1.785-1.529-3.471-3.434-4.754
		c-12.719-8.566-29.214-12.998-44.42-12.711c-35.439,0.671-56.642,31.455-68.371,61.338
		C528.102,211.017,531.809,214.921,535.52,216.487z"/>
</g>
<g>
	<g>
		<path fill="#F89C2D" d="M115.616,780.588c-1.938-9.036-2.958-18.411-2.958-28.028c0-73.441,59.534-132.975,132.975-132.975
			c73.439,0,132.974,59.533,132.974,132.975c0,73.438-59.535,132.975-132.974,132.975c-51.257,0-95.74-29.003-117.938-71.491"/>
		<g>
			<path fill="#F27E0A" d="M123.425,778.434c-11.113-55.894,15.892-111.312,66.264-137.567
				c48.509-25.285,108.777-12.881,146.344,25.538c38.167,39.033,44.427,100.226,18.432,147.435
				c-26.646,48.394-83.845,72.164-137.149,60.379c-35.711-7.896-65.474-32.389-82.627-64.263
				c-4.951-9.198-18.934-1.021-13.984,8.175c25.936,48.189,76.675,77.305,131.372,75.348c50.365-1.801,96.142-32.499,119.235-76.803
				c23.69-45.448,19.2-101.652-9.272-143.794c-28.474-42.148-78.869-64.992-129.212-60.786
				c-84.54,7.064-141.218,89.158-125.018,170.646C109.844,792.979,125.453,788.634,123.425,778.434L123.425,778.434z"/>
		</g>
	</g>
	<g>
		<path fill="#6A2916" d="M252.725,630.954c-6.977-26.524,4.261-54.5,27.015-69.287c8.72-5.667,0.611-19.692-8.174-13.983
			c-28.884,18.771-43.333,53.834-34.458,87.576C239.762,645.352,255.384,641.066,252.725,630.954L252.725,630.954z"/>
	</g>
	<g>
		<path fill="#AECE25" d="M225.408,617.371c0,0-66.973-45.623-100.894,43.788C124.514,661.159,211.335,698.172,225.408,617.371z"/>
		<g>
			<path fill="#91AF23" d="M229.495,610.379c-12.718-8.566-29.215-12.999-44.421-12.711c-35.439,0.671-56.641,31.454-68.368,61.337
				c-1.763,4.492,1.944,8.396,5.655,9.963c15.453,6.52,33.393,9.531,50.072,8.549c33.658-1.98,54.719-25.963,60.783-57.992
				c1.932-10.206-13.676-14.561-15.617-4.307c-5.269,27.833-21.582,45.887-50.649,46.304c-13.521,0.194-27.814-2.908-40.284-8.171
				c1.884,3.32,3.77,6.641,5.655,9.962c10.068-25.655,27.688-50.596,57.923-49.396c10.689,0.426,22.182,4.457,31.075,10.447
				C230.01,630.217,238.106,616.178,229.495,610.379z"/>
		</g>
	</g>
	<circle fill="#F27E0A" cx="311.893" cy="695.312" r="12.171"/>
	<circle fill="#F27E0A" cx="263.211" cy="695.312" r="12.171"/>
	<circle fill="#F27E0A" cx="287.552" cy="733.176" r="12.17"/>
</g>
<g>
	<g>
		<path fill="#ED322E" d="M762.627,687.756c-1.969-15.785-6.466-29.789-13.518-40.061c-39.044-56.868-115.077-17.816-116.361-17.151
			c-1.286-0.665-77.316-39.717-116.363,17.151c-39.369,57.346,0.842,231.071,116.363,181.509
			c79.794,34.234,123.657-38.068,130.178-104.958"/>
		<g>
			<path fill="#CC1612" d="M770.435,685.603c-5.735-41.147-31.852-72.723-74.344-76.825C673.584,606.604,648.691,613,628.661,623
				c2.725,0,5.45,0,8.174,0c-26.678-14-60.553-19.581-89.351-9.722c-37.054,12.683-51.702,49.552-53.679,85.573
				c-3.516,63.98,32.624,155.202,110.126,146.519c8.919-1,17.514-3.258,25.921-6.351c4.768-1.754,9.352,1.345,14.07,2.822
				c5.758,1.804,11.82,2.977,17.818,3.611c19.874,2.096,39.073-2.405,55.666-13.608c34.53-23.311,49.453-68.07,53.617-107.6
				c1.094-10.383-15.113-10.277-16.195,0c-4.63,43.943-27.567,101.508-78.527,105.512c-13.076,1.028-25.892-2.361-38.002-6.959
				c-9.72-3.691-21.855,4.114-31.962,6.044c-17.036,3.249-34.179-0.624-48.604-9.973c-29.045-18.826-42.493-57.781-46.617-90.473
				c-4.252-33.715-0.589-74.257,30.667-94.304c20.138-12.915,46.146-10.307,67.984-3.859c10.407,3.073,19.805,10.585,30.201,5.803
				c17.368-7.99,37.049-12.079,56.122-10.787c35.494,2.401,54.204,32.201,58.727,64.661
				C756.255,700.216,771.858,695.813,770.435,685.603L770.435,685.603z"/>
		</g>
	</g>
	<g>
		<path fill="#6A2916" d="M639.476,628.249c-6.977-26.525,4.263-54.5,27.016-69.286c8.72-5.667,0.611-19.693-8.174-13.984
			c-28.886,18.771-43.334,53.833-34.459,87.576C626.513,642.647,642.135,638.361,639.476,628.249L639.476,628.249z"/>
	</g>
	<g>
		<path fill="#AECE25" d="M612.816,634.702c0,0-1.393-81.026-93.988-57.126C518.829,577.576,538.71,669.84,612.816,634.702z"/>
		<g>
			<path fill="#91AF23" d="M620.915,634.702c-0.33-14.999-5.65-30.738-14.292-42.903c-20.823-29.303-58.04-29.915-89.946-22.032
				c-4.448,1.1-6.581,5.744-5.656,9.962c3.766,17.171,12.077,33.808,22.993,47.475c21.226,26.573,53.663,27.828,82.891,14.491
				c9.49-4.33,1.252-18.285-8.175-13.983c-25.584,11.673-50.033,7.253-66.361-16.168c-7.432-10.661-12.942-23.402-15.731-36.121
				c-1.886,3.321-3.771,6.643-5.656,9.962c25.855-6.388,56.914-7.453,73.444,17.181c6.373,9.496,10.077,22.316,10.293,32.138
				C604.948,645.129,621.145,645.152,620.915,634.702z"/>
		</g>
	</g>
</g>
<g>
	<g>
		<path fill="#FFC127" d="M149.788,426.94C165.248,461.51,200,489.654,260,489.623v0.027c0,0.002,0-0.015,0-0.015s0,0.017,0,0.015
			v-0.027c111,0.059,139.725-98.323,106.489-153.116c-33.356-54.995-39.866-77.53-45.275-129.819
			C316.354,159.683,269,155.676,260,155.334v-0.034c0,0,0.38,0,0,0.01c-0.38-0.01,0-0.01,0-0.01v0.034
			c-10,0.341-56.352,4.349-61.213,51.353c-5.411,52.29-11.817,74.825-45.175,129.819c-7.999,13.188-12.32,34.311-12.81,50.57"/>
		<g>
			<path fill="#FFAA00" d="M142.6,431.027c21.217,45.904,67.729,66.202,116.252,66.693c-2.698-2.699-2.852-5.399-8.852-8.098
				c0,0.009,0,0.018,0,0.027c0,4.331,4.438,8.208,8.852,8.098c0.396-0.021,1.223-0.021,1.62,0c4.412,0.109,8.528-3.768,8.528-8.098
				c0-0.009,0-0.019,0-0.027c-2,2.699-5.453,5.399-8.152,8.098c42.987-0.379,84.312-15.732,109.075-52.294
				c19.514-28.809,23.469-68.214,10.279-100.323c-9.766-23.772-25.996-44.387-35.541-68.469
				c-9.326-23.527-11.994-48.196-15.146-73.086c-4.424-34.944-35.501-54.723-68.666-56.312c2.7,2.699,6.151,5.399,8.151,8.098
				c0-0.011,0-0.023,0-0.034c0-4.357-3.737-8.174-8.152-8.098c-0.396,0.014-1.572,0.014-1.97,0
				c-4.415-0.076-8.878,3.741-8.878,8.098c0,0.011,0,0.022,0,0.034c6-2.699,6.153-5.399,8.852-8.098
				c-13.833,0.662-27.105,4.436-39.137,11.319c-22.481,12.862-27.847,34.929-30.594,58.904
				c-3.251,28.382-10.248,54.795-23.113,80.359c-7.408,14.717-17.291,28.299-23.895,43.364c-6.293,14.357-8.877,30.317-9.58,45.895
				c-0.471,10.446,15.738,10.4,16.207,0c0.628-13.913,3.136-27.997,8.755-40.815c6.105-13.926,15.588-26.712,22.588-40.269
				c10.961-21.228,18.446-43.487,22.454-67.025c3.86-22.667,1.466-49.019,22.096-64.082c9.905-7.231,22.452-10.871,34.621-11.454
				c4.408-0.212,7.746-3.524,7.746-8.098c0-0.011,0-0.023,0-0.034c-3,2.699-5.047,5.399-7.746,8.098
				c0.396,0.014,1.119,0.014,1.517,0C258.071,160.7,256,158,253,155.301c0,0.011,0,0.022,0,0.034c0,4.574,3.538,7.886,7.946,8.098
				c10.239,0.49,20.366,3.269,29.419,8.053c19.678,10.396,22.545,29.143,24.978,49.385c2.47,20.55,6.35,40.674,13.712,60.069
				c8.756,23.069,22.37,43.219,33.78,64.914c13.927,26.483,10.768,60.057-3.393,85.649c-19.728,35.653-59.712,49.68-98.494,50.021
				c-4.414,0.039-7.948,3.655-7.948,8.098c0,0.009,0,0.018,0,0.027c3-2.699,5.247-5.399,7.946-8.098c-0.396-0.02-1.22-0.02-1.617,0
				c2.701,2.699,4.671,5.399,7.671,8.098c0-0.009,0-0.019,0-0.027c0-4.448-3.332-8.052-7.746-8.098
				c-43.312-0.439-83.95-17.792-102.846-58.672C152.029,413.381,138.248,421.614,142.6,431.027L142.6,431.027z"/>
		</g>
	</g>
	<g>
		<path fill="#6A2916" d="M268.536,156.554c8.875-33.744-5.57-68.807-34.457-87.578c-8.786-5.709-16.895,8.317-8.174,13.984
			c22.753,14.787,33.99,42.763,27.014,69.287C250.26,162.359,265.881,166.646,268.536,156.554L268.536,156.554z"/>
	</g>
	<g>
		<path fill="#AECE25" d="M280.236,154.891c0,0,66.972-45.623,100.895,43.788C381.131,198.679,294.308,235.692,280.236,154.891z"/>
		<g>
			<path fill="#91AF23" d="M284.324,161.882c9.035-6.084,20.271-9.716,31.074-10.445c30.059-2.032,48.118,24.407,57.924,49.395
				c1.885-3.321,3.771-6.642,5.655-9.962c-12.046,5.083-25.446,7.817-38.474,8.16c-29.779,0.787-47.106-18.022-52.458-46.292
				c-1.94-10.253-17.549-5.899-15.617,4.307c6.045,31.936,26.068,54.305,58.944,57.841c17.009,1.829,36.151-1.749,51.912-8.398
				c3.711-1.565,7.418-5.47,5.655-9.962c-12.062-30.734-32.738-59.565-68.368-61.338c-14.982-0.745-31.951,4.312-44.421,12.711
				C267.539,153.697,275.634,167.735,284.324,161.882z"/>
		</g>
	</g>
</g>
<g>
	<g>
		<g>
			<path fill="#FFC127" d="M1162.539,521.401c55.55,38.727,91.893,103.087,91.893,175.938c0,57.602-22.767,109.856-59.738,148.371
				c56.521-39.33,93.546-104.723,93.546-178.797c0-120.241-97.475-217.717-217.718-217.717c-72.566,0-136.798,35.534-176.355,90.114
				c1.078-0.629,2.157-1.254,3.246-1.864c37.898-33.845,87.876-54.442,142.685-54.442c25.744,0,50.433,4.54,73.302,12.863"/>
			<g>
				<path fill="#FFAA00" d="M1158.452,528.394c47.496,33.672,79.186,85.979,86.424,143.823
					c7.677,61.34-13.676,123.041-55.907,167.769c-6.094,6.451,2.044,18.214,9.813,12.719
					c92.079-65.138,123.446-188.209,72.566-289.12c-48.167-95.532-161.186-142.208-263.238-113.74
					c-48.823,13.619-91.061,44.831-120.935,85.378c-5.04,6.84,4.497,14.863,11.079,11.081c7.324-4.208,13.405-10.515,20.206-15.538
					c6.843-5.057,14.1-9.521,21.486-13.729c16.576-9.438,34.528-15.994,53.012-20.523c39.115-9.581,80.517-6.177,118.288,7.161
					c9.874,3.487,14.083-12.163,4.305-15.617c-39.737-14.034-82.018-16.556-123.234-7.99c-18.826,3.913-36.954,10.901-54.094,19.526
					c-8.696,4.378-16.962,9.563-24.976,15.075c-7.903,5.435-14.885,12.89-23.168,17.648c3.692,3.693,7.386,7.387,11.079,11.08
					c70.141-95.198,208.477-113.792,300.814-39.834c89.468,71.66,103.158,206.176,31.486,295.243
					c-12.273,15.253-26.89,28.619-42.853,39.911c3.271,4.24,6.542,8.479,9.813,12.718c46.307-49.039,68.601-115.702,60.212-182.743
					c-7.815-62.455-42.938-118.082-94.004-154.283C1158.085,508.354,1150.008,522.407,1158.452,528.394L1158.452,528.394z"/>
			</g>
		</g>
		<g>
			<path fill="#FFC127" d="M897.412,537.446c-1.089,0.61-2.168,1.235-3.246,1.864c-0.824,1.137-1.638,2.279-2.44,3.432
				C893.594,540.945,895.479,539.17,897.412,537.446z"/>
			<g>
				<path fill="#FFAA00" d="M893.325,530.454c-1.632,0.918-3.558,1.803-4.886,3.13c-1.414,1.416-2.555,3.421-3.706,5.071
					c-2.063,2.954-1.151,7.395,1.267,9.813c3.167,3.166,8.27,3.055,11.453,0c1.868-1.795,3.755-3.569,5.686-5.297
					c3.289-2.945,2.99-8.461,0-11.453c-3.249-3.247-8.167-2.94-11.453,0c-1.931,1.729-3.816,3.502-5.686,5.296
					c4.239,3.271,8.479,6.543,12.718,9.814c0.805-1.151,1.617-2.295,2.44-3.431c-0.969,0.969-1.937,1.937-2.904,2.905
					c1.077-0.628,2.157-1.254,3.245-1.865c3.842-2.161,5.107-7.32,2.904-11.081C902.147,529.507,897.173,528.29,893.325,530.454z"/>
			</g>
		</g>
		<g>
			<path fill="#FFC127" d="M1130.669,503.023c-27.513-12.846-58.206-20.02-90.572-20.02c-54.809,0-104.786,20.598-142.685,54.442
				c30.997-17.418,66.734-27.396,104.821-27.396c118.372,0,214.334,95.961,214.334,214.335c0,52.687-19.043,100.9-50.574,138.225
				c10.028-4.902,19.61-10.574,28.7-16.898c36.972-38.515,59.738-90.77,59.738-148.371c0-74.737-38.249-140.538-96.243-178.896"/>
			<g>
				<path fill="#FFAA00" d="M1134.757,496.032c-81.327-37.057-175.929-23.267-243.071,35.687c-7.119,6.252,1.979,17.032,9.813,12.72
					c86.237-47.46,193.579-27.663,257.846,46.299c65.288,75.138,63.969,190.223,0.923,266.146
					c-5.866,7.063,1.342,16.964,9.813,12.718c8.725-4.374,17.105-9.209,25.27-14.557c7.708-5.05,13.375-12.588,19.08-19.728
					c10.893-13.624,19.943-28.517,27.383-44.278c15.861-33.61,22.383-71.041,20.244-108.048
					c-4.02-69.525-42.399-132.938-99.781-171.54c-8.692-5.848-16.789,8.189-8.174,13.985c51.996,34.98,85.813,91.535,91.495,154.006
					c3.098,34.06-2.763,68.777-16.286,100.138c-6.155,14.272-14.211,27.662-23.285,40.247
					c-11.938,16.555-25.985,26.701-44.119,35.789c3.271,4.241,6.541,8.479,9.813,12.718c69.048-83.149,69.501-203.321,1.026-286.74
					c-67.402-82.111-187.294-101.84-279.421-51.14c3.271,4.239,6.541,8.479,9.813,12.718
					c61.251-53.781,149.125-67.018,223.443-33.156C1136.012,514.312,1144.25,500.356,1134.757,496.032L1134.757,496.032z"/>
			</g>
		</g>
	</g>
	<path fill="#6A2916" d="M902.146,506.466c9.443-6.999,15.173,0.613,22.173,10.058l0,0c6.999,9.442,12.616,17.141,3.173,24.14
		l-15.197,11.265c-9.444,6.996-22.773,5.018-29.772-4.424l0,0c-7.002-9.442-5.021-22.775,4.424-29.771L902.146,506.466z"/>
</g>
<g>
	<g>
		<path fill="#ED322E" d="M993.872,298.193c-8.207-18.464-35.28-14.148-40.106-13.225c-4.826-0.924-31.581-5.24-39.785,13.225
			c-8.604,19.352-5.98,69.604,40.02,70.715v0.053c0,0-0.25-0.024,0-0.027c0.251,0.003,0,0.027,0,0.027v-0.053
			C1000,367.796,1002.474,317.545,993.872,298.193z"/>
		<g>
			<path fill="#CC1612" d="M1001.202,294.106c-9.329-18-30.602-20.047-48.626-17.09c5.906-0.97-2.581-0.762-4.918-0.993
				c-4.896-0.484-9.891-0.291-14.746,0.479c-10.519,1.67-18.957,6.384-25.012,15.226c-9.32,13.614-7.103,36.2-2.213,50.817
				c7.159,21.4,25.4,33.342,47.458,34.462c-2.698-2.699-6.146-5.399-8.146-8.098c0,0.018,0,0.035,0,0.053
				c0,4.292,3.732,8.259,8.146,8.098c0.494-0.036,1.627-0.036,2.121,0c4.414,0.16,8.733-3.805,8.733-8.098c0-0.019,0-0.035,0-0.053
				c-3,2.699-6.012,5.399-8.711,8.098c20.611-1.046,37.354-11.183,45.606-30.481c6.529-15.265,7.732-34.933,1.275-50.485
				c-3.945-9.501-19.696-5.339-15.692,4.306c10.594,25.516-1.524,58.939-31.552,60.463c-4.407,0.224-7.927,3.515-7.927,8.098
				c0,0.018,0,0.035,0,0.053c3-2.699,5.189-5.399,7.888-8.098c-0.494-0.036-1.239-0.036-1.734,0
				c2.698,2.699,4.847,5.399,7.847,8.098c0-0.019,0-0.035,0-0.053c0-4.583-3.545-7.875-7.953-8.098
				c-29.738-1.51-41.456-33.587-32.218-59.098c4.855-13.402,22.724-8.646,33.069-8.646c12.153,0,26.303-4.291,33.302,9.214
				C992.009,311.555,1006.002,303.364,1001.202,294.106z"/>
		</g>
	</g>
	<g>
		<path fill="#6A2916" d="M961.882,288.727c-0.671-16.202-0.514-32.468,0.23-48.663c1.274-27.793,6.721-50.341,21.183-74.419
			c16.69-27.789,45.134-56.168,77.218-65.641c9.992-2.951,5.735-18.582-4.306-15.617c-34.455,10.173-63.791,38.573-83.336,67.497
			c-16.812,24.881-24.269,50.207-26.458,79.772c-1.402,18.938-1.512,38.097-0.728,57.071
			C946.117,299.133,962.313,299.175,961.882,288.727L961.882,288.727z"/>
	</g>
	<g>
		<path fill="#ED322E" d="M1160.668,282.943c-16.392-11.819-37.753,5.63-41.455,8.86c-4.637,1.63-30.342,11.623-28.135,31.709
			c2.313,21.051,30.725,62.654,69.77,41.181l0.021,0.046c0.225-0.129,0.414-0.269,0.631-0.398c0.219-0.124,0.436-0.221,0.654-0.349
			l-0.026-0.047C1200.051,340.55,1177.847,295.328,1160.668,282.943z"/>
		<g>
			<path fill="#CC1612" d="M1164.755,275.951c-9.19-5.653-18.841-6.132-29.054-3.049c-4.923,1.485-9.574,4.124-13.888,6.859
				c-1.778,1.127-3.446,2.43-5.108,3.718c-1.465,1.135-4.655,2.329-0.403,0.791c-14.81,5.357-32.012,16.739-33.269,34.014
				c-1.273,17.51,10.1,35.221,22.444,46.642c16.998,15.727,39.361,17.022,59.457,6.759c-3.693-0.968-7.386-1.937-11.078-2.905
				c0.006,0.016,0.013,0.031,0.021,0.046c1.815,3.916,7.606,5.092,11.079,2.905c0.41-0.279,0.84-0.529,1.286-0.747
				c3.971-2.119,4.96-7.326,2.904-11.079c-0.008-0.016-0.017-0.031-0.026-0.047c-0.968,3.693-1.936,7.386-2.905,11.079
				c17.408-11.452,27.164-29.043,24.211-50.112C1187.984,303.401,1178.775,286.665,1164.755,275.951
				c-8.303-6.345-16.354,7.734-8.174,13.984c21.69,16.576,25.2,51.399,1.46,67.018c-3.762,2.475-5.11,7.05-2.904,11.079
				c0.008,0.017,0.017,0.032,0.026,0.048c0.968-3.693,1.937-7.386,2.904-11.079c-0.446,0.218-0.874,0.466-1.286,0.747
				c3.693,0.969,7.387,1.937,11.079,2.905c-0.007-0.015-0.014-0.03-0.021-0.046c-1.93-4.164-7.446-4.761-11.08-2.904
				c-15.044,7.682-29.46,5.365-41.738-5.995c-8.221-7.605-15.413-19.473-15.978-30.871c-0.521-10.493,13.319-17.799,21.563-20.949
				c12.209-4.665,21.373-18.932,35.975-9.952C1165.503,295.423,1173.631,281.411,1164.755,275.951z"/>
		</g>
	</g>
	<g>
		<path fill="#6A2916" d="M1127.469,288.906c-10.121-9.421-19.684-19.48-28.816-29.854c-17.531-19.913-28.593-41.087-35.327-66.881
			c-7.706-29.522-7.822-68.691,5.317-95.437c4.588-9.336-9.377-17.548-13.982-8.174c-15.465,31.472-15.08,70.738-7.853,104.138
			c9.553,44.14,36.906,77.591,69.21,107.661C1123.65,307.463,1135.128,296.035,1127.469,288.906L1127.469,288.906z"/>
	</g>
	<g>
		<path fill="#AECE25" d="M1050.256,90.267c0,0-21.349,78.173,74.232,81.164C1124.488,171.431,1131.242,77.288,1050.256,90.267z"/>
		<g>
			<path fill="#91AF23" d="M1042.447,88.114c-3.948,14.735-3.104,31.718,2.059,45.979c12.103,33.435,47.512,44.086,79.982,45.435
				c4.634,0.192,7.808-3.841,8.098-8.098c1.184-17.348-1.896-36.07-8.832-51.963c-13.672-31.335-43.245-41.741-75.65-37.009
				c-10.303,1.505-5.907,17.109,4.304,15.618c27.792-4.058,49.859,7.25,58.976,34.128c4.189,12.357,5.897,26.187,5.008,39.226
				c2.699-2.699,5.398-5.399,8.098-8.098c-27.104-1.126-57.1-9.168-65.836-37.969c-3.255-10.728-3.222-23.113-0.588-32.944
				C1060.771,82.317,1045.148,78.036,1042.447,88.114z"/>
		</g>
	</g>
</g>
<g>
	<g>
		<path fill="#64619A" d="M934.268,859.909c-25.781,2.774-50.712-4.221-68.818-21.687c-36.64-35.335-31.455-100.152,11.577-144.771
			c43.035-44.617,107.621-52.139,144.259-16.801c36.64,35.34,31.457,100.156-11.578,144.774
			c-10.757,11.153-22.861,19.988-35.54,26.416"/>
		<g>
			<path fill="#4A4A7F" d="M934.268,851.811c-25.524,2.29-49.504-4.426-67.21-23.604c-14.208-15.389-18.733-37.037-17.711-57.349
				c2.444-48.555,42.126-91.277,87.42-104.627c43.057-12.689,88.25,7.979,98.968,53.003c11.771,49.452-23.719,99.537-65.654,121.614
				c-9.244,4.867-1.058,18.847,8.174,13.986c49.279-25.945,83.221-80.614,73.686-137.012c-8.693-51.424-58.814-76.987-107.15-69.923
				c-54.142,7.913-99.432,55.78-109.812,108.429c-10.354,52.501,20.812,103.971,75.386,111.357
				c7.984,1.082,15.894,1.039,23.904,0.32C944.583,867.08,944.673,850.878,934.268,851.811L934.268,851.811z"/>
		</g>
	</g>
	<g>
		<path fill="#6A2916" d="M1026.595,686.632c13.352-23.869,40.735-36.571,67.425-31.394c10.203,1.979,14.554-13.631,4.308-15.617
			c-33.755-6.547-68.658,8.338-85.716,38.836C1007.507,687.582,1021.498,695.745,1026.595,686.632L1026.595,686.632z"/>
	</g>
	<g>
		<path fill="#AECE25" d="M1016.486,657.679c0,0-16.531-79.336-103.02-38.53C913.467,619.148,950.261,706.063,1016.486,657.679z"/>
		<g>
			<path fill="#91AF23" d="M1024.295,655.525c-3.184-14.901-11.894-29.531-22.956-39.838c-26.014-24.235-62.623-16.986-91.959-3.531
				c-4.357,1.999-4.499,7.355-2.904,11.079c6.618,15.46,17.455,30.122,30.2,41.002c25.617,21.868,57.285,19.235,83.898,0.434
				c8.455-5.975,0.377-20.025-8.176-13.984c-23.17,16.37-47.455,18.109-68.701-1.873c-9.823-9.239-17.925-21.342-23.238-33.753
				c-0.968,3.693-1.936,7.387-2.903,11.079c24.879-11.412,54.957-17.288,75.826,4.44c7.477,7.784,13.035,18.666,15.296,29.251
				C1010.858,670.042,1026.471,665.711,1024.295,655.525z"/>
		</g>
	</g>
</g>
<g>
	<g>
		<path fill="#F89C2D" d="M560.012,386.109c19.102,22.851,45.292,36.946,74.186,36.946c58.468,0,105.866-44.196,105.866-115.395
			c0-71.2-47.397-142.441-105.866-142.441c-58.467,0-105.866,71.241-105.866,142.441c0,17.8,2.964,21.233,8.319,36.656"/>
		<g>
			<path fill="#F27E0A" d="M554.286,391.835c35.574,41.238,92.979,50.975,139.765,22.708
				c44.214-26.715,59.243-81.653,52.436-130.326c-7.117-50.883-36.25-105.601-87.425-123.176
				c-50.881-17.475-96.779,22.431-118.874,64.648c-9.818,18.76-16.076,39.683-18.569,60.681
				c-1.354,11.408-2.042,22.979-0.561,34.408c1.166,8.99,4.771,17.21,7.784,25.69c3.471,9.77,19.123,5.561,15.618-4.306
				c-4.183-11.77-7.859-21.842-8.03-34.503c-0.199-14.694,2.241-29.254,6.017-43.408c7.101-26.621,21.33-51.563,41.711-70.182
				c18.529-16.927,43.346-24.672,67.842-18.246c26.289,6.896,45.939,29.437,59.013,52.059
				c26.878,46.508,31.57,114.156-5.791,156.424c-15.178,17.171-36.884,27.458-59.489,30.067
				c-31.676,3.656-59.597-10.344-79.994-33.991C558.905,372.462,547.501,383.969,554.286,391.835L554.286,391.835z"/>
		</g>
	</g>
	<g>
		<path fill="#F89C2D" d="M673.403,307.658c0,71.201-10.818,90.152-51.789,112.738"/>
		<g>
			<path fill="#F27E0A" d="M665.306,307.658c-0.067,23.164,0.436,48.963-9.425,70.513c-7.611,16.633-22.911,26.626-38.353,35.233
				c-9.121,5.084-0.957,19.073,8.175,13.984c18.028-10.048,34.811-22.097,44.163-41.042c11.746-23.794,11.562-52.813,11.636-78.688
				C681.532,297.212,665.336,297.216,665.306,307.658L665.306,307.658z"/>
		</g>
	</g>
	<g>
		<path fill="#6A2916" d="M644.885,168.473c-6.976-26.524,4.262-54.5,27.015-69.287c8.721-5.667,0.611-19.693-8.174-13.984
			c-28.885,18.771-43.333,53.833-34.458,87.577C631.922,182.871,647.544,178.585,644.885,168.473L644.885,168.473z"/>
	</g>
	<g>
		<path fill="#AECE25" d="M617.568,154.891c0,0-66.971-45.623-100.895,43.788C516.673,198.679,603.494,235.692,617.568,154.891z"/>
		<g>
			<path fill="#91AF23" d="M621.656,147.898c-12.719-8.566-29.214-12.998-44.42-12.711c-35.439,0.671-56.642,31.455-68.371,61.338
				c-1.762,4.492,1.944,8.396,5.656,9.962c15.453,6.521,33.392,9.531,50.072,8.55c33.658-1.98,54.72-25.963,60.785-57.993
				c1.932-10.206-13.677-14.56-15.617-4.307c-5.269,27.833-21.583,45.886-50.65,46.304c-13.52,0.196-27.813-2.909-40.283-8.171
				c1.884,3.32,3.77,6.641,5.655,9.962c10.068-25.654,27.691-50.595,57.926-49.395c10.689,0.423,22.18,4.456,31.074,10.445
				C622.17,167.735,630.266,153.697,621.656,147.898z"/>
		</g>
	</g>
</g>
</svg>
