<?xml version="1.0" encoding="utf-8"?>
<!-- Generator: Adobe Illustrator 16.0.0, SVG Export Plug-In . SVG Version: 6.00 Build 0)  -->
<!DOCTYPE svg PUBLIC "-//W3C//DTD SVG 1.1//EN" "http://www.w3.org/Graphics/SVG/1.1/DTD/svg11.dtd">
<svg version="1.1" id="Layer_1" xmlns="http://www.w3.org/2000/svg" xmlns:xlink="http://www.w3.org/1999/xlink" x="0px" y="0px"
	 width="1400px" height="980px" viewBox="0 0 1400 980" enable-background="new 0 0 1400 980" xml:space="preserve">
<rect x="1" fill="#FFEDA1" width="1399" height="980"/>
<g>
	<g>
		<g>
			<path fill="#42A326" d="M157.079,698.738c18.682-45.271,57.809-83.927,106.59-94.306c46.724-9.942,82.577,22.645,83.773,68.825
				c1.313,50.623-33.977,99.082-75.27,124.984c-38.781,24.327-94.309,27.272-117.585-18.983c-2.689-5.343-10.687-0.647-8.007,4.681
				c24.297,48.279,79.726,48.494,122.758,26.571c49.704-25.319,86.698-81.245,87.375-137.253
				c0.581-47.834-35.679-82.284-83.025-79.476c-57.178,3.393-104.873,52.387-125.55,102.489
				C145.857,701.799,154.832,704.185,157.079,698.738L157.079,698.738z"/>
		</g>
	</g>
	<g>
		<g>
			<path fill="#42A326" d="M295.316,596.445c-15.405-32.472-46.394-48.788-81.748-44.379c-35.805,4.464-68.392,29.021-89.658,57.112
				c-24.849,32.819-41.83,75.675-36.065,117.448c5.198,37.672,28.574,68.122,67.691,73.599c5.847,0.82,8.366-8.113,2.466-8.938
				c-37.36-5.231-57.849-34.166-61.468-70.028c-3.574-35.403,10.232-70.933,29.755-99.763
				c34.668-51.193,125.204-95.871,161.02-20.369C289.872,606.526,297.864,601.817,295.316,596.445L295.316,596.445z"/>
		</g>
	</g>
	<g>
		<g>
			<path fill="#42A326" d="M291.779,600.331c33.759-13.365,46.805-52.927,46.966-86.147c0.028-5.98-9.243-5.978-9.272,0
				c-0.14,29.052-11.963,66.044-40.16,77.205C283.823,593.564,286.214,602.533,291.779,600.331L291.779,600.331z"/>
		</g>
	</g>
	<g>
		<g>
			<g>
				<path fill="#42A326" d="M329.721,543.045c-18.216,46.028,16.655,87.012,56.761,104.6c3.375,1.479,6.602-0.286,6.975-4.004
					c3.905-39-0.027-125.143-60.5-103.832c-5.599,1.973-3.189,10.935,2.466,8.939c52.317-18.437,52.029,62.256,48.762,94.893
					c2.326-1.334,4.651-2.668,6.975-4.002c-36.577-16.04-69.215-51.89-52.5-94.127C340.864,539.946,331.894,537.555,329.721,543.045
					z"/>
			</g>
		</g>
		<g>
			<g>
				<path fill="#42A326" d="M333.102,548.607c13.415,9.848,24.206,30.737,29.208,48.026c1.659,5.731,10.605,3.291,8.94-2.467
					c-5.755-19.895-16.328-40.984-33.47-53.566C332.952,537.057,328.336,545.107,333.102,548.607L333.102,548.607z"/>
			</g>
		</g>
	</g>
</g>
<g>
	<g>
		<g>
			<path fill="#42A326" d="M643.049,759.065c-0.254-26.007-5.815-45.188-22.031-65.246c-21.656-26.788-14.571-60.507-25.948-91.023
				c-11.128-29.842-43.59-42.508-72.893-32.368c-22.069,7.639-32.037,30.289-36.075,51.599c-3.295,17.374-2.664,34.784-8.783,51.662
				c-3.935,10.854-11.778,19.092-18.669,28.061c-21.615,28.129-19.262,67.213-5.559,98.18c15.568,35.187,49.78,53.144,86.97,56.171
				c-1.546-1.545-2.062-3.092-4.062-4.637c0,0.09,0,0.182,0,0.271c0,2.432,1.535,4.763,4.062,4.637c2.076-0.105,3.665-0.105,5.742,0
				c2.525,0.126,4.196-2.205,4.196-4.637c0-0.09,0-0.182,0-0.271c-1,1.545-2.938,3.092-4.485,4.637
				c52.711-4.287,95.19-42.717,97.458-97.034c0.248-5.981-8.985-5.956-9.234,0c-2.044,48.922-40.592,83.896-88.106,87.761
				c-2.517,0.207-4.633,1.955-4.633,4.637c0,0.09,0,0.182,0,0.271c2-1.544,3.106-3.09,4.653-4.635c-2.078-0.104-4.159-0.104-6.235,0
				c1.545,1.545,3.582,3.091,4.582,4.635c0-0.09,0-0.182,0-0.271c0-2.682-2.058-4.43-4.575-4.637
				c-48.047-3.907-83.517-37.821-87.417-86.109c-2.003-24.805,6.045-43.548,21.056-62.124
				c19.967-24.716,16.961-53.152,23.731-82.509c4.988-21.617,20.316-39.685,43.583-39.316c16.679,0.267,30.067,3.504,40.334,18.207
				c18.798,26.92,8.831,63.875,24.725,92.659c4.509,8.168,11.188,14.905,16.589,22.445c9.204,12.848,11.137,28.487,11.7,43.887
				c0.017,1.7,0.034,3.398,0.051,5.1C633.836,765.04,643.108,765.049,643.049,759.065z"/>
		</g>
	</g>
	<g>
		<g>
			<path fill="#42A326" d="M571.247,481.282c-29.494,16.207-36.975,54.734-33.387,85.175c0.69,5.861,9.97,5.93,9.271,0
				c-3.199-27.156,2.122-62.513,28.797-77.168C581.167,486.41,576.49,478.402,571.247,481.282L571.247,481.282z"/>
		</g>
	</g>
	<g>
		<g>
			<g>
				<path fill="#FFEDA1" d="M544.175,567.604c0,0-23.507,58,48.512,88.231C592.687,655.835,604.072,544.943,544.175,567.604z"/>
			</g>
			<g>
				<g>
					<path fill="#42A326" d="M539.707,566.372c-16.233,41.153,14.826,77.669,50.642,93.468c3.373,1.485,6.604-0.294,6.975-4.005
						c3.504-35.102-0.226-111.622-54.38-92.699c-5.606,1.957-3.195,10.917,2.465,8.938c45.985-16.067,45.51,55.047,42.643,83.761
						c2.326-1.333,4.651-2.666,6.975-4.002c-32.28-14.237-61.108-45.653-46.38-82.996
						C550.842,563.268,541.873,560.878,539.707,566.372z"/>
				</g>
			</g>
		</g>
		<g>
			<g>
				<path fill="#42A326" d="M542.946,571.896c11.394,8.362,21.297,27.126,25.699,42.338c1.659,5.731,10.606,3.292,8.94-2.467
					c-5.152-17.809-14.623-36.618-29.958-47.877C542.798,560.345,538.182,568.397,542.946,571.896L542.946,571.896z"/>
			</g>
		</g>
	</g>
</g>
<g>
	<g>
		<g>
			<g>
				<path fill="#42A326" d="M778.61,314.784c-24.995-8.109-55.438-6.294-62.348,23.935c-9.322,40.796,20.79,71.825,60.249,73.009
					c-1.547-1.545-4.512-3.091-4.512-4.636c0,0.012,0,0.021,0,0.034c0,2.523,1.98,4.642,4.512,4.636
					c0.863-0.005,0.859-0.005,1.727,0c2.526,0.006,3.762-2.113,3.762-4.636c0-0.013,0-0.022,0-0.034c0,1.545-2.279,3.09-3.824,4.636
					c41.428-1.578,66.997-31.407,60.199-73.009c-5.034-30.823-38.8-31.596-62.435-23.935c-5.661,1.834-3.136,10.79,2.568,8.939
					c18.488-5.992,43.644-8.272,50.624,14.613c10.979,35.992-17.49,62.83-51.348,64.118c-2.525,0.096-5.785,2.036-5.785,4.637
					c0,0.012,0,0.021,0,0.034c5-1.546,4.266-3.091,5.811-4.636c-0.865-0.005-0.656-0.005-1.522,0
					c1.545,1.545,3.712,3.09,5.712,4.636c0-0.013,0-0.022,0-0.034c0-2.586-2.6-4.561-5.125-4.637
					c-34.602-1.036-57.081-26.281-51.425-61.272c4.138-25.608,31.947-23.582,50.817-17.459
					C781.971,325.574,784.272,316.62,778.61,314.784z"/>
			</g>
		</g>
		<g>
			<g>
				<path fill="#42A326" d="M915.255,315.833c-26.08-1.578-54.832,7.655-54.313,38.377c0.709,42.12,38.081,64.756,76.595,56.013
					c-1.902-1.079-3.804-2.158-5.704-3.237c0.001,0.011,0.006,0.023,0.009,0.036c0.541,2.49,3.36,3.851,5.701,3.236
					c0.837-0.224,1.676-0.439,2.517-0.649c2.49-0.631,3.84-3.291,3.237-5.703c-0.003-0.012-0.006-0.024-0.01-0.036
					c-1.079,1.901-2.159,3.803-3.237,5.703c37.487-11.256,57.883-46.043,40.417-83.663c-13.617-29.332-44.455-24.139-67.551-9.444
					c-5.025,3.199-0.382,11.226,4.681,8.007c15.971-10.164,39.379-18.835,52.074,0.597c20.88,31.966,0.478,65.785-32.087,75.563
					c-2.461,0.739-3.858,3.208-3.236,5.703c0.003,0.012,0.007,0.024,0.009,0.036c1.08-1.901,2.158-3.803,3.238-5.703
					c-0.841,0.208-1.679,0.425-2.518,0.649c1.902,1.079,3.803,2.158,5.703,3.237c-0.002-0.011-0.004-0.022-0.007-0.035
					c-0.556-2.548-3.347-3.773-5.703-3.237c-9.397,2.132-19.497,1.942-28.907,0.155c-22.801-4.326-34.133-25.55-35.948-47.229
					c-2.139-25.511,25.576-30.284,45.04-29.105C921.231,325.467,921.196,316.193,915.255,315.833z"/>
			</g>
		</g>
		<g>
			<g>
				<path fill="#42A326" d="M782,322.591c14.832-52.17,46.015-112.471,96.787-136.717c-2.325-1.335-4.65-2.669-6.977-4.003
					c-0.327,49.047,13.816,101.752,42.219,141.829c3.427,4.833,11.474,0.21,8.008-4.682c-27.491-38.788-41.272-89.64-40.954-137.146
					c0.024-3.743-3.9-5.472-6.978-4.004c-52.932,25.28-85.592,87.9-101.046,142.259C771.421,325.889,780.369,328.332,782,322.591
					L782,322.591z"/>
			</g>
		</g>
	</g>
	<g>
		<g>
			<g>
				<path fill="#FFEDA1" d="M869.242,187.638c0,0,18.047,69.399,104.929,47.952C974.171,235.59,908.814,125.854,869.242,187.638z"/>
			</g>
			<g>
				<g>
					<path fill="#42A326" d="M864.771,188.871c13.206,49.204,66.668,61.349,110.632,51.188c2.913-0.673,4.265-4.315,2.77-6.81
						c-20.944-34.945-76.032-102.446-112.936-47.952c-3.362,4.966,4.675,9.601,8.007,4.681
						c31.263-46.169,80.096,19.874,96.922,47.951c0.924-2.271,1.849-4.541,2.771-6.81c-39.005,9.014-87.404-0.676-99.226-44.714
						C872.164,180.637,863.219,183.088,864.771,188.871z"/>
				</g>
			</g>
		</g>
		<g>
			<g>
				<path fill="#FFFFFF" d="M870.457,187.146c0,0,27.242-0.424,56.43,22.442"/>
			</g>
			<g>
				<g>
					<path fill="#42A326" d="M870.457,191.782c19.595-0.078,38.941,10.382,54.09,21.809c4.777,3.603,9.39-4.455,4.679-8.006
						c-16.405-12.373-37.608-23.158-58.769-23.074C864.479,182.535,864.477,191.806,870.457,191.782L870.457,191.782z"/>
				</g>
			</g>
		</g>
	</g>
</g>
<g>
	<g>
		<g>
			<path fill="#42A326" d="M1322.039,240.698c-25.214-44.871-83.031-35.985-123.58-20.071c-1.195,0.47-2.384,0.967-3.566,1.465
				c-3.434,1.448,4.205,1.448,0.771,0c-2.815-1.186-5.66-2.292-8.522-3.36c-10.775-4.007-21.913-6.961-33.218-9.025
				c-22.745-4.151-50.105-3.828-68.987,11.428c-38.37,31.007-28.895,93.228-12.242,133.021
				c21.122,50.472,65.886,87.196,121.6,89.341c-1.545-1.546-3.294-3.091-4.294-4.637c0,0.02,0,0.041,0,0.062
				c0,2.49,1.767,4.685,4.294,4.635c1.03-0.041,1.551-0.041,2.58,0c2.528,0.05,4.126-2.145,4.126-4.635c0-0.021,0-0.042,0-0.062
				c-1,1.546-2.749,3.091-4.295,4.637c51.011-2.03,91.387-33.735,114.762-77.786c19.293-36.364,29.684-86.574,10.486-125.013
				c-2.672-5.351-10.623-0.654-7.962,4.678c17.349,34.743,7.165,79.458-8.87,112.667c-20.605,42.68-59.412,74.258-107.791,76.182
				c-2.523,0.101-4.33,2.032-4.33,4.635c0,0.02,0,0.041,0,0.062c2-1.545,2.796-3.091,4.341-4.636c-1.032-0.04-2.003-0.04-3.034,0
				c1.547,1.545,3.693,3.091,4.693,4.636c0-0.021,0-0.042,0-0.062c0-2.6-2.314-4.539-4.84-4.635
				c-53.18-2.047-93.726-37.859-113.686-85.556c-14.986-35.804-24.154-95.916,12.771-122.127
				c18.997-13.486,45.766-10.8,67.158-6.103c8.258,1.812,16.343,4.366,24.285,7.233c4.504,1.625,9.001,4.909,13.695,2.929
				c36.474-15.364,92.349-26.694,115.649,14.773C1316.964,250.588,1324.971,245.917,1322.039,240.698z"/>
		</g>
	</g>
	<g>
		<g>
			<path fill="#42A326" d="M1214.755,133.256c-29.708,20.968-32.908,62.518-25.324,94.852c1.364,5.819,10.304,3.35,8.939-2.465
				c-6.509-27.75-4.973-66.004,21.063-84.379C1224.277,137.845,1219.651,129.801,1214.755,133.256L1214.755,133.256z"/>
		</g>
	</g>
	<g>
		<g>
			<g>
				<path fill="#FFEDA1" d="M1192.539,209.424c0,0,14.648,68.938,100.906,51.718
					C1293.445,261.142,1234.121,150.502,1192.539,209.424z"/>
			</g>
			<g>
				<g>
					<path fill="#42A326" d="M1188.068,210.658c10.811,48.986,63.08,62.971,106.609,54.955c3.058-0.563,4.09-4.365,2.771-6.809
						c-19.177-35.522-70.174-103.69-108.913-51.719c-3.578,4.799,4.477,9.414,8.007,4.679c32.633-43.779,77.737,23.632,92.9,51.718
						c0.923-2.27,1.847-4.539,2.771-6.809c-38.785,7.142-85.567-4.805-95.205-48.481
						C1195.721,202.355,1186.782,204.83,1188.068,210.658z"/>
				</g>
			</g>
		</g>
		<g>
			<g>
				<path fill="#FFFFFF" d="M1193.758,208.993c0,0,26.762,0.791,54.409,24.531"/>
			</g>
			<g>
				<g>
					<path fill="#42A326" d="M1193.758,213.629c18.712,0.76,37.168,11.603,51.131,23.173c4.568,3.784,11.165-2.737,6.557-6.555
						c-15.934-13.204-36.392-25.023-57.688-25.89C1187.776,204.114,1187.8,213.386,1193.758,213.629L1193.758,213.629z"/>
				</g>
			</g>
		</g>
	</g>
</g>
<g>
	<g>
		<g>
			<path fill="#42A326" d="M858.005,787.54c-1.771,32.861-49.225,32.861-50.994,0C805.24,754.662,856.243,754.835,858.005,787.54
				c0.319,5.946,9.593,5.978,9.272,0c-1.061-19.678-15.092-33.711-34.77-34.769c-19.638-1.058-33.795,16.683-34.768,34.769
				c-1.06,19.637,16.682,33.795,34.768,34.769c19.637,1.058,33.795-16.685,34.77-34.769
				C867.598,781.563,858.324,781.595,858.005,787.54z"/>
		</g>
	</g>
	<g>
		<g>
			<path fill="#42A326" d="M820.918,722.64c-1.771,32.859-49.224,32.859-50.995,0C768.154,689.761,819.158,689.931,820.918,722.64
				c0.32,5.944,9.594,5.977,9.271,0c-1.059-19.679-15.09-33.711-34.769-34.77c-19.638-1.058-33.796,16.685-34.769,34.77
				c-1.059,19.636,16.684,33.794,34.769,34.768c19.638,1.058,33.796-16.684,34.769-34.768
				C830.512,716.661,821.238,716.692,820.918,722.64z"/>
		</g>
	</g>
	<g>
		<g>
			<path fill="#42A326" d="M895.09,722.64c-1.769,32.859-49.223,32.859-50.993,0C842.327,689.761,893.33,689.931,895.09,722.64
				c0.321,5.944,9.594,5.977,9.273,0c-1.06-19.679-15.091-33.711-34.77-34.77c-19.638-1.058-33.795,16.685-34.768,34.77
				c-1.057,19.636,16.683,33.794,34.768,34.768c19.637,1.058,33.796-16.684,34.77-34.768
				C904.684,716.661,895.411,716.692,895.09,722.64z"/>
		</g>
	</g>
	<g>
		<g>
			<path fill="#42A326" d="M783.833,654.646c-1.772,32.861-49.227,32.861-50.996,0C731.067,621.769,782.07,621.94,783.833,654.646
				c0.318,5.945,9.592,5.977,9.271,0c-1.06-19.679-15.09-33.709-34.77-34.769c-19.637-1.058-33.795,16.685-34.769,34.769
				c-1.058,19.636,16.685,33.796,34.769,34.769c19.637,1.059,33.796-16.685,34.77-34.769
				C793.425,648.669,784.151,648.701,783.833,654.646z"/>
		</g>
	</g>
	<g>
		<g>
			<path fill="#42A326" d="M858.005,654.646c-1.771,32.861-49.225,32.861-50.994,0C805.24,621.769,856.243,621.94,858.005,654.646
				c0.319,5.945,9.593,5.977,9.272,0c-1.061-19.679-15.092-33.709-34.77-34.769c-19.638-1.058-33.795,16.685-34.768,34.769
				c-1.06,19.636,16.682,33.796,34.768,34.769c19.637,1.059,33.795-16.685,34.77-34.769
				C867.598,648.669,858.324,648.701,858.005,654.646z"/>
		</g>
	</g>
	<g>
		<g>
			<path fill="#42A326" d="M932.178,654.646c-1.771,32.861-49.225,32.861-50.994,0C879.413,621.769,930.415,621.94,932.178,654.646
				c0.318,5.945,9.593,5.977,9.271,0c-1.059-19.679-15.091-33.709-34.769-34.769c-19.638-1.058-33.796,16.685-34.769,34.769
				c-1.058,19.636,16.683,33.796,34.769,34.769c19.638,1.059,33.794-16.685,34.769-34.769
				C941.771,648.669,932.496,648.701,932.178,654.646z"/>
		</g>
	</g>
	<g>
		<g>
			<path fill="#42A326" d="M848.649,516.07c-25.365,29.758-30.375,73.026-20.611,109.676c1.537,5.773,10.48,3.321,8.939-2.466
				c-8.841-33.193-4.917-73.502,18.227-100.655C859.058,518.103,852.531,511.514,848.649,516.07L848.649,516.07z"/>
		</g>
	</g>
	<g>
		<g>
			<path fill="#FFEDA1" d="M992.005,638.08c0,0-23.444-40.552-53.043-65.86c8.378-9.56,11.466-16.668,19.339-33.103
				c0,0-67.844-6.801-94.425,22.134c-34.444,37.489,21.234,107.752,21.234,107.752c7.237-11.438,12.513-21.956,16.253-31.599
				C921.119,643.458,949.959,645.109,992.005,638.08z"/>
		</g>
		<g>
			<g>
				<path fill="#42A326" d="M995.889,635.741C981.561,611.17,966,587.764,942,568.942c0,2.183,0,4.37,0,6.554
					c10-10.334,14.396-21.925,20.186-34.041c1.598-3.339-0.313-6.626-3.943-6.974c-35.005-3.355-87.764-0.403-105.667,35.39
					c-16.387,32.754,9.218,76.917,29.242,102.409c1.909,2.436,5.87,1.368,7.29-0.938c6.47-10.511,12.082-21.271,16.722-32.706
					c-1.899,1.079-3.8,2.157-5.7,3.237c30.254,8.754,62.473,5.571,93.108,0.677c5.89-0.941,3.383-9.875-2.466-8.939
					c-28.94,4.623-59.597,7.592-88.175-0.677c-2.642-0.763-4.765,0.925-5.704,3.236c-4.338,10.695-9.743,20.678-15.787,30.495
					c2.429-0.315,4.855-0.627,7.282-0.94c-18.105-23.053-38.273-59.025-28.507-89.343c11.23-34.858,68.885-35.461,98.42-32.632
					c-1.332-2.324-2.667-4.649-4.001-6.975c-5.413,11.326-10.49,22.481-18.616,32.166c-1.541,1.838-2.013,4.776,0,6.554
					c20.815,18.367,38.282,40.956,52.258,64.922C990.952,645.58,998.906,640.917,995.889,635.741z"/>
			</g>
		</g>
	</g>
	<g>
		<g>
			<path fill="#FFFFFF" d="M866.117,576.61c0,0,35.927,9.271,75.332,35.154"/>
		</g>
		<g>
			<g>
				<path fill="#42A326" d="M864.884,581.08c26.375,6.968,51.403,20.036,74.226,34.688c5.048,3.241,9.692-4.788,4.679-8.006
					c-23.42-15.036-49.354-28.467-76.438-35.621C861.562,570.609,859.108,579.554,864.884,581.08L864.884,581.08z"/>
			</g>
		</g>
	</g>
	<g>
		<g>
			<path fill="#FFFFFF" d="M885.801,583.227c0,0,11.692-14.387,34.4-15.115"/>
		</g>
		<g>
			<g>
				<path fill="#42A326" d="M889.078,586.504c7.456-8.979,19.855-13.165,31.123-13.757c5.947-0.313,5.977-9.585,0-9.271
					c-13.529,0.71-28.697,5.654-37.678,16.473C878.734,584.512,885.256,591.107,889.078,586.504L889.078,586.504z"/>
			</g>
		</g>
	</g>
	<g>
		<g>
			<path fill="#FFFFFF" d="M896.506,587.602c0,0,3.607,17.211,7.085,24.163"/>
		</g>
		<g>
			<g>
				<path fill="#42A326" d="M892.038,588.835c1.797,8.531,3.786,17.367,7.548,25.269c2.571,5.397,10.563,0.691,8.007-4.677
					c-3.388-7.114-4.996-15.379-6.617-23.057C899.741,580.521,890.806,583.003,892.038,588.835L892.038,588.835z"/>
			</g>
		</g>
	</g>
</g>
<g>
	<g>
		<g>
			<g>
				<path fill="#42A326" d="M1331.729,754.231c-44.59-80.347-89.182-160.696-133.771-241.043c-1.674-3.013-6.335-3.013-8.008,0
					c-44.558,80.288-89.116,160.577-133.673,240.866c-1.152,2.075-0.646,5.225,1.661,6.344
					c41.911,20.304,89.391,26.297,135.485,26.594c46.112,0.295,94.804-5.925,136.641-26.419c5.371-2.629,0.669-10.625-4.678-8.006
					c-40.603,19.886-87.341,24.877-131.963,25.152c-44.142,0.273-90.68-5.89-130.804-25.329c0.554,2.114,1.108,4.793,1.663,6.909
					c44.558-80.288,89.117-159.3,133.675-240.3c-2.67,0-5.337,0-8.008,0c44.592,81,89.183,160.128,133.772,240.477
					C1326.625,764.705,1334.635,759.465,1331.729,754.231z"/>
			</g>
		</g>
		<g>
			<g>
				<path fill="#42A326" d="M1193.425,777.72c-44.366-0.282-90.418-5.762-130.804-25.329c-2.232-1.08-5.048-0.669-6.343,1.664
					c-5.46,9.84-10.922,19.679-16.383,29.52c-0.915,1.653-0.92,4.343,0.727,5.619c40.768,31.609,103.714,36.625,152.803,36.936
					c39.798,0.249,80.63-4.662,118.14-18.44c12.348-4.535,25.412-10.113,35.724-18.495c1.622-1.317,1.661-3.936,0.726-5.619
					c-5.428-9.78-10.855-19.563-16.284-29.343c-1.292-2.325-4.116-2.754-6.342-1.664
					C1284.785,772.453,1238.047,777.444,1193.425,777.72c-5.978,0.038-5.98,9.311,0,9.272c46.352-0.287,94.517-5.788,136.641-26.419
					c-2.112-0.555-4.229-1.107-6.342-1.663c5.428,9.782,10.855,19.563,16.283,29.344c0.243-1.87,0.485-3.745,0.726-5.617
					c-34.947,28.413-97.376,33.384-141.509,34.186c-47.492,0.86-115.129-5.559-152.047-34.186c0.241,1.872,0.482,3.747,0.726,5.617
					c5.46-9.838,10.921-19.681,16.382-29.519c-2.113,0.554-4.228,1.107-6.345,1.663c41.911,20.304,89.391,26.297,135.485,26.594
					C1199.404,787.03,1199.402,777.758,1193.425,777.72z"/>
			</g>
		</g>
	</g>
	<g>
		<g>
			<path fill="#42A326" d="M1202.712,735.989c-0.258,6.597-2.388,9.445-8.986,9.219c-7.928-0.273-6.088-11.69-5.165-16.771
				c0.509-2.802,4.03-16.829,8.117-12.895C1201.454,720.141,1202.53,729.82,1202.712,735.989c0.175,5.965,9.448,5.981,9.272,0
				c-0.316-10.738-3.17-25.942-14.271-30.569c-11.742-4.888-17.719,16.938-18.667,24.023c-1.415,10.568,0.499,23.415,13.217,24.868
				c12.51,1.433,19.251-6.319,19.721-18.322C1212.217,730.007,1202.943,730.029,1202.712,735.989z"/>
		</g>
	</g>
	<g>
		<g>
			<g>
				<path fill="#42A326" d="M1269.008,718.232c1.55,6.399,0.35,9.761-6.081,11.35c-7.522,1.857-8.993-8.995-9.544-14.143
					c-0.3-2.807-0.636-17.799,4.162-15.238C1263.421,703.334,1267.133,712.308,1269.008,718.232
					c1.797,5.681,10.748,3.253,8.939-2.465c-3.229-10.215-10.118-24.12-22.051-25.538c-12.433-1.481-12.311,20.284-11.558,27.341
					c1.151,10.752,6.767,23.298,19.601,21.191c12.402-2.038,16.84-11.305,14.008-22.994
					C1276.539,709.96,1267.601,712.424,1269.008,718.232z"/>
			</g>
		</g>
		<g>
			<g>
				<path fill="#42A326" d="M1112.179,715.768c-2.709,11.177,0.966,19.893,12.556,22.756c13.061,3.223,19.22-8.761,20.886-19.723
					c1.282-8.445,1.582-26.785-10.156-28.407C1123.264,688.709,1115.06,706.651,1112.179,715.768
					c-1.81,5.718,7.144,8.146,8.938,2.465c1.968-6.224,5.065-11.9,9.647-16.584c6.276-6.415,6.19,7.911,6.113,11.647
					c-0.104,5.215-1.18,16.128-8.037,16.453c-7.439,0.353-9.217-5.354-7.724-11.517
					C1122.525,712.424,1113.585,709.96,1112.179,715.768z"/>
			</g>
		</g>
	</g>
</g>
<g>
	<g>
		<path fill="#42A326" d="M586.381,192.216l-5.479-7.482c32.111-23.506,35.427-43.302,35.321-50.905
			c-14.244,0.454-27.554,6.714-39.618,18.646l-6.244,6.175l-1.577-8.638c-2.664-14.585-8.481-21.799-11.898-24.907
			c-6.54,7.161-10.909,16.027-13.012,26.413l-1.751,8.644l-6.127-6.344c-8.664-8.971-22.65-19.397-41.18-19.989
			c-0.201,7.464,2.845,27.165,35.012,50.712l-5.479,7.481c-46.85-34.296-38.39-63.005-38.006-64.21l0.981-3.09l3.242-0.136
			c19.935-0.829,35.503,7.96,46.258,17.26c3.304-10.252,8.793-19.046,16.381-26.211l2.365-2.235l2.905,1.466
			c0.533,0.268,11.78,6.157,17.568,25.631c13.475-11.096,28.725-16.576,44.494-15.91l3.293,0.14l0.951,3.154
			C625.147,129.091,633.189,157.95,586.381,192.216z"/>
	</g>
	<g>
		<path fill="#FFEDA1" d="M556.588,169.125c-5.242-0.56-130.318-15.711-122.397,85.317c4.805,61.274,27.364,78.906,54.514,113.526
			C518.356,405.78,551.03,407,554.635,407h3.604c3.605,0,36.431-1.22,66.083-39.031c27.148-34.62,50.234-52.557,55.038-113.831
			C687.282,153.108,561.829,168.565,556.588,169.125z"/>
		<path fill="#42A326" d="M558.239,411h-3.604c-3.869,0-38.695-1.105-69.578-40.488c-4.091-5.215-8.081-10.027-11.941-14.696
			c-21.988-26.598-39.357-47.597-43.547-101.019c-2.016-25.73,4.144-46.543,18.311-61.865
			c22.596-24.435,60.103-29.561,87.589-29.561c5.082,0,12.851,0.19,21.116,1.088c8.631-0.955,16.657-1.155,21.884-1.155
			c27.408,0,64.799,5.105,87.282,29.419c14.107,15.257,20.242,35.993,18.231,61.632c-4.182,53.309-21.708,74.478-43.898,101.277
			c-3.92,4.733-7.976,9.6-12.115,14.878C597.086,409.894,562.124,411,558.239,411z M535.469,172.644
			c-20.988,0-59.391,3.455-80.78,26.588c-12.341,13.347-17.684,31.801-15.876,54.848c3.96,50.5,19.684,69.52,41.448,95.843
			c3.898,4.713,7.927,9.694,12.09,15.003C520.53,400.858,551.228,402,554.635,402h3.604c3.422,0,34.258-1.142,62.435-37.074
			c4.215-5.375,8.309-10.372,12.268-15.154c21.144-25.536,37.845-45.73,41.796-96.113c1.8-22.957-3.513-41.345-15.794-54.625
			c-21.274-23.009-59.552-26.449-80.475-26.449c-5.026,0-12.758,0.189-21.033,1.114l-0.848,0.09l-0.492-0.053
			C547.873,172.83,540.368,172.644,535.469,172.644z"/>
	</g>
	<g>
		<g>
			<path fill="#42A326" d="M548.761,232.23c0.258-6.598,2.387-9.447,8.986-9.218c7.929,0.273,6.089,11.69,5.165,16.771
				c-0.508,2.802-4.03,16.829-8.116,12.895C550.019,248.079,548.941,238.399,548.761,232.23c-0.176-5.965-9.449-5.982-9.272,0
				c0.315,10.737,3.169,25.943,14.27,30.568c11.743,4.891,17.719-16.936,18.667-24.023c1.413-10.568-0.499-23.414-13.217-24.868
				c-12.511-1.431-19.25,6.32-19.72,18.323C539.255,238.213,548.528,238.19,548.761,232.23z"/>
		</g>
	</g>
	<g>
		<g>
			<path fill="#42A326" d="M619.843,250.774c0.258-6.598,2.388-9.447,8.987-9.219c7.928,0.273,6.089,11.69,5.165,16.771
				c-0.508,2.803-4.031,16.83-8.117,12.896C621.102,266.622,620.024,256.943,619.843,250.774c-0.175-5.965-9.447-5.982-9.271,0
				c0.315,10.737,3.168,25.942,14.27,30.567c11.741,4.892,17.719-16.936,18.666-24.022c1.414-10.568-0.498-23.415-13.216-24.868
				c-12.511-1.431-19.25,6.32-19.72,18.324C610.338,256.756,619.61,256.733,619.843,250.774z"/>
		</g>
	</g>
	<g>
		<g>
			<path fill="#42A326" d="M579.666,321.856c0.257-6.597,2.387-9.446,8.986-9.219c7.929,0.273,6.09,11.691,5.166,16.772
				c-0.508,2.802-4.031,16.829-8.117,12.895C580.924,337.704,579.847,328.025,579.666,321.856c-0.175-5.966-9.448-5.982-9.271,0
				c0.315,10.737,3.168,25.942,14.269,30.568c11.742,4.89,17.72-16.937,18.667-24.023c1.414-10.568-0.497-23.415-13.216-24.868
				c-12.511-1.433-19.25,6.32-19.719,18.323C570.161,327.838,579.434,327.816,579.666,321.856z"/>
		</g>
	</g>
	<g>
		<g>
			<path fill="#42A326" d="M508.584,334.219c0.447,11.473,6.306,18.904,18.257,18.49c13.645-0.471,16.166-13.921,14.678-25.035
				c-1.119-8.372-5.832-25.817-17.429-24.194C511.88,305.187,508.866,324.614,508.584,334.219c-0.178,5.981,9.096,5.965,9.271,0
				c0.191-6.491,1.588-12.813,4.703-18.543c4.35-8.004,7.915,5.088,8.94,8.766c1.399,5.026,3.624,16.463-3.031,18.696
				c-7.036,2.362-10.364-2.554-10.612-8.919C517.623,328.259,508.35,328.237,508.584,334.219z"/>
		</g>
	</g>
	<g>
		<g>
			<path fill="#42A326" d="M468.406,263.136c0.448,11.473,6.307,18.904,18.258,18.491c13.646-0.471,16.165-13.921,14.679-25.036
				c-1.12-8.372-5.833-25.816-17.43-24.195C471.704,234.105,468.688,253.531,468.406,263.136c-0.176,5.982,9.098,5.965,9.272,0
				c0.191-6.491,1.588-12.812,4.704-18.543c4.349-8.004,7.915,5.089,8.939,8.766c1.399,5.027,3.623,16.464-3.031,18.697
				c-7.036,2.361-10.363-2.555-10.612-8.92C477.445,257.177,468.172,257.154,468.406,263.136z"/>
		</g>
	</g>
</g>
<g>
	<g>
		<path fill="#42A326" d="M269.49,428.023c-42.095,0-86.75-33.292-111.124-82.841c-15.328-31.164-21.008-64.82-15.992-94.767
			c5.111-30.512,20.674-53.583,43.824-64.969c9.962-4.9,20.859-7.385,32.389-7.385c42.095,0,86.751,33.293,111.12,82.845
			c15.33,31.162,21.008,64.817,15.993,94.764c-5.109,30.51-20.672,53.583-43.82,64.969
			C291.916,425.539,281.019,428.023,269.49,428.023z M218.587,187.331c-10.097,0-19.617,2.167-28.296,6.435
			c-20.398,10.031-34.167,30.693-38.771,58.18c-4.698,28.048,0.688,59.707,15.167,89.144c22.847,46.452,64.16,77.662,102.803,77.662
			c10.097,0,19.619-2.164,28.297-6.433c20.397-10.032,34.166-30.694,38.768-58.18c4.698-28.047-0.689-59.704-15.169-89.141
			C298.541,218.543,257.229,187.331,218.587,187.331z"/>
	</g>
	<g>
		<path fill="#42A326" d="M268.319,411.009c-35.604,0-73.949-29.326-95.418-72.974c-13.273-26.984-18.551-55.959-14.866-81.589
			c3.78-26.277,16.494-45.976,35.801-55.472c7.956-3.912,16.678-5.898,25.924-5.898c35.603,0,73.948,29.327,95.417,72.975
			c27.682,56.281,18.292,117.767-20.934,137.062C286.286,409.025,277.564,411.009,268.319,411.009z M219.759,204.348
			c-7.813,0-15.161,1.665-21.832,4.946c-16.477,8.104-27.385,25.317-30.716,48.473c-3.421,23.799,1.552,50.853,14.009,76.176
			c19.945,40.549,54.947,67.796,87.098,67.796c7.814,0,15.159-1.665,21.832-4.948c34.638-17.037,42.131-72.955,16.704-124.647
			C286.911,231.594,251.91,204.348,219.759,204.348z"/>
	</g>
	<g>
		<path fill="#42A326" d="M196.313,447.763c-53.358,0-99.327-21.957-119.317-62.597c-15.576-31.671-13.279-69.665,6.466-106.984
			c19.487-36.827,53.73-68.672,96.423-89.671l4.092,8.32c-40.953,20.142-73.74,50.573-92.32,85.687
			c-18.319,34.623-20.571,69.624-6.34,98.555c29.633,60.251,122.118,75.649,206.159,34.308l4.093,8.321
			C262.489,439.972,228.088,447.763,196.313,447.763z"/>
	</g>
	<g>
		
			<rect x="134.929" y="298.407" transform="matrix(0.4414 0.8973 -0.8973 0.4414 408.2574 -49.6926)" fill="#42A326" width="218.221" height="9.273"/>
	</g>
	<g>
		
			<rect x="156.91" y="298.41" transform="matrix(0.9466 0.3224 -0.3224 0.9466 110.7322 -62.4998)" fill="#42A326" width="174.28" height="9.272"/>
	</g>
	<g>
		
			<rect x="241.192" y="226.964" transform="matrix(0.4414 0.8973 -0.8973 0.4414 408.4638 -51.7918)" fill="#42A326" width="9.273" height="150.393"/>
	</g>
	<g>
		
			<rect x="239.401" y="215.915" transform="matrix(0.9466 0.3223 -0.3223 0.9466 110.6881 -62.4805)" fill="#42A326" width="9.271" height="174.251"/>
	</g>
</g>
</svg>
